<mxfile host="Electron" modified="2023-05-05T03:04:11.281Z" agent="Mozilla/5.0 (Windows NT 10.0; Win64; x64) AppleWebKit/537.36 (KHTML, like Gecko) draw.io/21.1.2 Chrome/106.0.5249.199 Electron/21.4.3 Safari/537.36" etag="Fju_-oTY9XAaVggs6f6K" version="21.1.2" type="device">
  <diagram id="aW8BC6xyf7XYzy20FpQa" name="Page-1">
    <mxGraphModel dx="1027" dy="629" grid="1" gridSize="10" guides="1" tooltips="1" connect="1" arrows="1" fold="1" page="1" pageScale="1" pageWidth="827" pageHeight="1169" math="1" shadow="0">
      <root>
        <mxCell id="0" />
        <mxCell id="1" parent="0" />
        <mxCell id="qKfENgX-lE7Lz8fzQS4i-13" value="" style="rounded=0;whiteSpace=wrap;html=1;fillColor=#F0F0F0;strokeColor=#36393d;" parent="1" vertex="1">
          <mxGeometry x="224" y="326" width="130" height="82" as="geometry" />
        </mxCell>
        <mxCell id="qKfENgX-lE7Lz8fzQS4i-1" value="" style="rounded=0;whiteSpace=wrap;html=1;fillColor=#F0F0F0;strokeColor=#36393d;" parent="1" vertex="1">
          <mxGeometry x="215" y="316" width="130" height="82" as="geometry" />
        </mxCell>
        <mxCell id="qKfENgX-lE7Lz8fzQS4i-7" value="" style="rounded=0;whiteSpace=wrap;html=1;fillColor=#F0F0F0;strokeColor=#36393d;" parent="1" vertex="1">
          <mxGeometry x="206" y="306" width="130" height="82" as="geometry" />
        </mxCell>
        <mxCell id="qKfENgX-lE7Lz8fzQS4i-8" value="Nodejs SDK" style="rounded=1;whiteSpace=wrap;html=1;fontSize=11;fillColor=#CCCCCC;strokeColor=#000000;" parent="1" vertex="1">
          <mxGeometry x="212" y="362" width="114" height="20" as="geometry" />
        </mxCell>
        <mxCell id="qKfENgX-lE7Lz8fzQS4i-9" value="" style="endArrow=none;dashed=1;html=1;rounded=0;fontColor=#000000;shape=link;sketch=0;width=0;" parent="1" edge="1">
          <mxGeometry width="50" height="50" relative="1" as="geometry">
            <mxPoint x="327" y="356.99999999999955" as="sourcePoint" />
            <mxPoint x="212" y="356.99999999999955" as="targetPoint" />
          </mxGeometry>
        </mxCell>
        <mxCell id="qKfENgX-lE7Lz8fzQS4i-10" value="" style="html=1;shadow=0;dashed=0;align=center;verticalAlign=middle;shape=mxgraph.arrows2.twoWayArrow;dy=0.8;dx=1.0;fontColor=#ffffff;strokeColor=#432D57;fillColor=#76608a;direction=south;" parent="1" vertex="1">
          <mxGeometry x="270" y="345" width="6" height="10" as="geometry" />
        </mxCell>
        <mxCell id="qKfENgX-lE7Lz8fzQS4i-11" value="&lt;font style=&quot;font-size: 10px;&quot;&gt;Peer.Client&lt;/font&gt;" style="shape=document;whiteSpace=wrap;html=1;boundedLbl=1;fillColor=#fad9d5;strokeColor=#ae4132;" parent="1" vertex="1">
          <mxGeometry x="239" y="312" width="66" height="33" as="geometry" />
        </mxCell>
        <mxCell id="qKfENgX-lE7Lz8fzQS4i-15" value="" style="rounded=1;whiteSpace=wrap;html=1;fillColor=#D5E8D4;shadow=0;" parent="1" vertex="1">
          <mxGeometry x="404" y="306" width="121" height="114" as="geometry" />
        </mxCell>
        <mxCell id="qKfENgX-lE7Lz8fzQS4i-42" value="&lt;font style=&quot;font-size: 10px;&quot;&gt;core 1&lt;/font&gt;" style="rounded=0;whiteSpace=wrap;html=1;fillColor=#FAD9D5;strokeColor=#000000;" parent="1" vertex="1">
          <mxGeometry x="430" y="315" width="67" height="26" as="geometry" />
        </mxCell>
        <mxCell id="qKfENgX-lE7Lz8fzQS4i-61" value="" style="endArrow=classic;html=1;rounded=0;fontSize=10;curved=1;" parent="1" edge="1">
          <mxGeometry width="50" height="50" relative="1" as="geometry">
            <mxPoint x="347" y="320" as="sourcePoint" />
            <mxPoint x="418" y="320" as="targetPoint" />
          </mxGeometry>
        </mxCell>
        <mxCell id="qKfENgX-lE7Lz8fzQS4i-62" value="1" style="ellipse;whiteSpace=wrap;html=1;aspect=fixed;fontSize=10;strokeColor=#000000;fillColor=#FFFFFF;fontStyle=1" parent="1" vertex="1">
          <mxGeometry x="344" y="292" width="11" height="11" as="geometry" />
        </mxCell>
        <mxCell id="qKfENgX-lE7Lz8fzQS4i-73" value="&lt;font color=&quot;#000000&quot;&gt;Request &lt;br&gt;(proposal)&lt;/font&gt;" style="text;html=1;strokeColor=none;fillColor=none;align=center;verticalAlign=middle;whiteSpace=wrap;rounded=0;shadow=0;fontSize=10;fontColor=#0000CC;" parent="1" vertex="1">
          <mxGeometry x="341" y="289" width="80" height="30" as="geometry" />
        </mxCell>
        <mxCell id="qKfENgX-lE7Lz8fzQS4i-74" value="" style="endArrow=classic;html=1;rounded=0;fontSize=10;fontColor=#000000;curved=1;" parent="1" edge="1">
          <mxGeometry width="50" height="50" relative="1" as="geometry">
            <mxPoint x="509" y="319" as="sourcePoint" />
            <mxPoint x="550" y="319" as="targetPoint" />
          </mxGeometry>
        </mxCell>
        <mxCell id="qKfENgX-lE7Lz8fzQS4i-75" value="2" style="ellipse;whiteSpace=wrap;html=1;aspect=fixed;fontSize=10;strokeColor=#000000;fillColor=#FFFFFF;fontStyle=1" parent="1" vertex="1">
          <mxGeometry x="509" y="276" width="11" height="11" as="geometry" />
        </mxCell>
        <mxCell id="qKfENgX-lE7Lz8fzQS4i-78" value="(an endorsed &#xa;transaction)" style="text;strokeColor=none;fillColor=none;align=left;verticalAlign=middle;spacingLeft=4;spacingRight=4;overflow=hidden;points=[[0,0.5],[1,0.5]];portConstraint=eastwest;rotatable=0;fontSize=10;fontColor=#000000;" parent="1" vertex="1">
          <mxGeometry x="519" y="285" width="76" height="30" as="geometry" />
        </mxCell>
        <mxCell id="D1b6CC4PXVBS12xehJpQ-1" value="&lt;font color=&quot;#000000&quot;&gt;&lt;i&gt;Fabric&lt;br&gt;gateway&lt;/i&gt;&lt;/font&gt;" style="text;html=1;strokeColor=none;fillColor=none;align=center;verticalAlign=middle;whiteSpace=wrap;rounded=0;shadow=0;fontSize=10;fontColor=#0000CC;" parent="1" vertex="1">
          <mxGeometry x="340" y="322" width="80" height="30" as="geometry" />
        </mxCell>
        <mxCell id="nLyv_cM34O3O0g81KhTM-1" value="&lt;font style=&quot;font-size: 10px;&quot;&gt;core 2&lt;/font&gt;" style="rounded=0;whiteSpace=wrap;html=1;fillColor=#FAD9D5;strokeColor=#000000;" parent="1" vertex="1">
          <mxGeometry x="430" y="348" width="67" height="26" as="geometry" />
        </mxCell>
        <mxCell id="nLyv_cM34O3O0g81KhTM-2" value="&lt;font style=&quot;font-size: 10px;&quot;&gt;core &lt;svg style=&quot;vertical-align: -0.025ex;&quot; xmlns:xlink=&quot;http://www.w3.org/1999/xlink&quot; viewBox=&quot;0 -442 433 453&quot; role=&quot;img&quot; height=&quot;1.025ex&quot; width=&quot;0.98ex&quot; xmlns=&quot;http://www.w3.org/2000/svg&quot;&gt;&lt;defs&gt;&lt;path d=&quot;M34 159Q34 268 120 355T306 442Q362 442 394 418T427 355Q427 326 408 306T360 285Q341 285 330 295T319 325T330 359T352 380T366 386H367Q367 388 361 392T340 400T306 404Q276 404 249 390Q228 381 206 359Q162 315 142 235T121 119Q121 73 147 50Q169 26 205 26H209Q321 26 394 111Q403 121 406 121Q410 121 419 112T429 98T420 83T391 55T346 25T282 0T202 -11Q127 -11 81 37T34 159Z&quot; id=&quot;MJX-2-TEX-I-1D450&quot;&gt;&lt;/path&gt;&lt;/defs&gt;&lt;g transform=&quot;scale(1,-1)&quot; stroke-width=&quot;0&quot; fill=&quot;currentColor&quot; stroke=&quot;currentColor&quot;&gt;&lt;g data-mml-node=&quot;math&quot;&gt;&lt;g data-mml-node=&quot;mi&quot;&gt;&lt;use xlink:href=&quot;#MJX-2-TEX-I-1D450&quot; data-c=&quot;1D450&quot;&gt;&lt;/use&gt;&lt;/g&gt;&lt;/g&gt;&lt;/g&gt;&lt;/svg&gt;&lt;/font&gt;" style="rounded=0;whiteSpace=wrap;html=1;fillColor=#FAD9D5;strokeColor=#000000;" parent="1" vertex="1">
          <mxGeometry x="430" y="385" width="67" height="26" as="geometry" />
        </mxCell>
        <mxCell id="nLyv_cM34O3O0g81KhTM-4" value="&lt;b&gt;&lt;font style=&quot;font-size: 13px;&quot;&gt;...&lt;/font&gt;&lt;/b&gt;" style="text;html=1;strokeColor=none;fillColor=none;align=center;verticalAlign=middle;whiteSpace=wrap;rounded=0;fontSize=10;" parent="1" vertex="1">
          <mxGeometry x="433" y="361" width="60" height="30" as="geometry" />
        </mxCell>
        <mxCell id="nLyv_cM34O3O0g81KhTM-5" value="" style="rounded=0;whiteSpace=wrap;html=1;fillColor=none;dashed=1;strokeWidth=1.4;" parent="1" vertex="1">
          <mxGeometry x="423.5" y="310" width="80" height="107" as="geometry" />
        </mxCell>
        <mxCell id="EZA2vkf-eeMvbSpHGTNi-1" value="Respond" style="text;strokeColor=none;fillColor=none;align=left;verticalAlign=middle;spacingLeft=4;spacingRight=4;overflow=hidden;points=[[0,0.5],[1,0.5]];portConstraint=eastwest;rotatable=0;fontSize=10;fontColor=#000000;" parent="1" vertex="1">
          <mxGeometry x="520" y="266" width="58" height="30" as="geometry" />
        </mxCell>
        <mxCell id="qXrCnPMYwg_ESG51_VQg-1" value="An endorsing peer" style="text;strokeColor=none;fillColor=none;align=left;verticalAlign=middle;spacingLeft=4;spacingRight=4;overflow=hidden;points=[[0,0.5],[1,0.5]];portConstraint=eastwest;rotatable=0;fontSize=10;fontColor=#000000;" parent="1" vertex="1">
          <mxGeometry x="417" y="417" width="103" height="30" as="geometry" />
        </mxCell>
        <mxCell id="qXrCnPMYwg_ESG51_VQg-2" value="Clients" style="text;strokeColor=none;fillColor=none;align=left;verticalAlign=middle;spacingLeft=4;spacingRight=4;overflow=hidden;points=[[0,0.5],[1,0.5]];portConstraint=eastwest;rotatable=0;fontSize=10;fontColor=#000000;" parent="1" vertex="1">
          <mxGeometry x="266" y="407" width="103" height="30" as="geometry" />
        </mxCell>
      </root>
    </mxGraphModel>
  </diagram>
</mxfile>
